<?xml version="1.0" encoding="utf-8"?>
<!-- Generator: Adobe Illustrator 25.4.1, SVG Export Plug-In . SVG Version: 6.00 Build 0)  -->
<svg version="1.1" id="Layer_1" xmlns="http://www.w3.org/2000/svg" xmlns:xlink="http://www.w3.org/1999/xlink" x="0px" y="0px"
	 viewBox="0 0 725.5 308.2" style="enable-background:new 0 0 725.5 308.2;" xml:space="preserve">
<style type="text/css">
	.st0{fill:none;}
	.st1{fill:#852BED;}
	.st2{fill:#FFFFFF;}
</style>
<rect x="0" class="st0" width="725.5" height="260.2"/>
<g>
	<path class="st1" d="M162.5,106.7l29.6,66.6h-17l-6.8-15.5h-61.6l-6.9,15.5h-17l8.9-20c3-6.7,9.6-11,16.9-11h52.8L148.7,114
		c-0.8-1.7-2.5-2.7-4.2-2.7h-14.1c-1.8,0-3.5,1-4.1,2.7l-7.6,17h-17l10.8-24.3c2.9-6.7,9.6-11,16.9-11h16.1
		C152.9,95.8,159.5,100,162.5,106.7z"/>
	<rect x="329.2" y="121.6" class="st1" width="17.4" height="51.7"/>
	<path class="st1" d="M403.5,95.8v15.5h-43.3v-0.1h-38.3c-0.6-0.1-1.3-0.2-2.1-0.2h-94c-8.7,0-9.1,12.5,0,12.5h55.4
		c36.7,0,36.8,49.6,0,49.6h-77v-15.5h77c12.7,0,12.4-18.7,0-18.7h-55.4c-33.1,0-33-43.4,0-43.4H320c1.1,0,2.1,0,3,0.1H403.5z"/>
	<path class="st1" d="M510.4,95.8h17l-16.5,37.1c-2.9,6.7-9.6,11-16.9,11h-15.4v29.5h-17.3v-29.5h-15.3c-7.4,0-14-4.2-17-11
		l-16.5-37.1h17l13.3,29.8c0.8,1.7,2.5,2.8,4.2,2.8H493c1.8,0,3.5-1.1,4.1-2.8L510.4,95.8z"/>
	<path class="st1" d="M625.8,95.8h17L613,162.4c-3,6.6-9.6,11-16.9,11h-16.2c-7.3,0-13.9-4.4-16.9-11l-29.7-66.6h17l26.5,59.4
		c0.8,1.7,2.5,2.7,4.2,2.7h14c1.9,0,3.6-1,4.2-2.7L625.8,95.8z"/>
	<g>
		<g>
			<path class="st2" d="M139.1,200.9c1.1,0.7,1.7,1.7,1.7,3c0,1.1-0.4,2-1.2,2.7c-0.8,0.7-1.7,1.1-2.9,1.1h-5.5v-13.1h5.2
				c1.1,0,2.1,0.3,2.8,1c0.8,0.7,1.1,1.6,1.1,2.6C140.3,199.3,139.9,200.2,139.1,200.9z M136.4,197h-2.6v2.9h2.6
				c0.4,0,0.7-0.1,1-0.4c0.3-0.3,0.4-0.6,0.4-1s-0.1-0.8-0.4-1C137.1,197.1,136.8,197,136.4,197z M136.8,205.2
				c0.4,0,0.8-0.1,1.1-0.4c0.3-0.3,0.4-0.7,0.4-1.1c0-0.4-0.1-0.8-0.4-1.1c-0.3-0.3-0.6-0.4-1.1-0.4h-3v3.1H136.8z"/>
			<path class="st2" d="M160.3,207.9c-1.5,0-2.6-0.4-3.6-1.2c-0.9-0.8-1.4-1.9-1.4-3.3v-8.8h2.6v8.6c0,0.7,0.2,1.2,0.6,1.6
				c0.4,0.4,1,0.6,1.8,0.6s1.4-0.2,1.8-0.6c0.4-0.4,0.6-0.9,0.6-1.6v-8.6h2.6v8.8c0,1.4-0.5,2.5-1.4,3.3
				C163,207.5,161.8,207.9,160.3,207.9z"/>
			<path class="st2" d="M180.7,194.6h2.6v13.1h-2.6V194.6z"/>
			<path class="st2" d="M201.4,205.2h5v2.5h-7.6v-13.1h2.6V205.2z"/>
			<path class="st2" d="M226,194.6c1.8,0,3.3,0.6,4.5,1.9c1.2,1.3,1.8,2.8,1.8,4.6s-0.6,3.4-1.8,4.6c-1.2,1.3-2.7,1.9-4.5,1.9h-5.2
				v-13.1H226z M226,205.2c1.1,0,2.1-0.4,2.8-1.1c0.7-0.8,1.1-1.7,1.1-2.9s-0.4-2.2-1.1-2.9c-0.7-0.8-1.6-1.1-2.8-1.1h-2.6v8.1H226z
				"/>
			<path class="st2" d="M247.2,194.6h2.6v13.1h-2.6V194.6z"/>
			<path class="st2" d="M272.8,194.6h2.6v13.1h-2l-5.6-8v8h-2.6v-13.1h2l5.6,8V194.6z"/>
			<path class="st2" d="M303.7,200.6v1c0,1.9-0.6,3.4-1.8,4.5c-1.2,1.2-2.7,1.7-4.6,1.7c-2,0-3.7-0.7-5-2c-1.3-1.3-2-2.9-2-4.8
				c0-1.9,0.7-3.5,2-4.8c1.3-1.3,2.9-2,4.9-2c1.2,0,2.3,0.3,3.3,0.8c1,0.6,1.8,1.3,2.4,2.2l-2.2,1.3c-0.3-0.5-0.8-1-1.4-1.3
				c-0.6-0.3-1.3-0.5-2.1-0.5c-1.2,0-2.3,0.4-3.1,1.2s-1.2,1.8-1.2,3.1c0,1.2,0.4,2.2,1.2,3.1c0.8,0.8,1.9,1.2,3.2,1.2
				c1,0,1.8-0.2,2.5-0.7c0.7-0.4,1.1-1,1.3-1.8h-4v-2.3H303.7z"/>
			<path class="st2" d="M338.9,207.6l-3.5-13.1h2.7l2.5,9.7l2.7-9.7h2.2l2.7,9.7l2.5-9.7h2.5l-3.4,13.1h-2.9l-2.5-8.7l-2.5,8.7
				H338.9z"/>
			<path class="st2" d="M375.5,194.6h2.6v13.1h-2.6v-5.4h-4.9v5.4h-2.6v-13.1h2.6v5.2h4.9V194.6z"/>
			<path class="st2" d="M402.1,207.6l-0.8-2.4h-5.4l-0.8,2.4h-2.8l4.6-13.1h3.2l4.6,13.1H402.1z M396.8,202.9h3.7l-1.9-5.3
				L396.8,202.9z"/>
			<path class="st2" d="M426.7,194.6v2.5h-3.5v10.6h-2.6V197h-3.5v-2.5H426.7z"/>
			<path class="st2" d="M444.3,194.5l-1.4,5.2h-2l0.7-5.2H444.3z"/>
			<path class="st2" d="M463.4,207.9c-1.3,0-2.4-0.3-3.3-0.9c-0.9-0.6-1.5-1.4-1.9-2.4l2.2-1.3c0.5,1.3,1.5,2,3,2
				c0.7,0,1.2-0.1,1.6-0.4s0.5-0.6,0.5-1c0-0.5-0.2-0.8-0.6-1.1c-0.4-0.3-1.1-0.5-2.2-0.8c-0.6-0.2-1.1-0.3-1.5-0.5
				c-0.4-0.2-0.8-0.4-1.2-0.7c-0.4-0.3-0.7-0.7-0.9-1.1s-0.3-1-0.3-1.6c0-1.2,0.4-2.1,1.3-2.8c0.8-0.7,1.9-1.1,3-1.1
				c1.1,0,2,0.3,2.8,0.8c0.8,0.5,1.4,1.2,1.9,2.2l-2.2,1.2c-0.5-1.1-1.4-1.7-2.5-1.7c-0.5,0-1,0.1-1.3,0.4c-0.3,0.2-0.5,0.6-0.5,0.9
				c0,0.4,0.2,0.7,0.5,1c0.3,0.3,1,0.5,2,0.8c0.4,0.1,0.7,0.2,0.9,0.3c0.2,0.1,0.5,0.2,0.8,0.3c0.4,0.1,0.6,0.3,0.8,0.4
				c0.2,0.1,0.4,0.3,0.7,0.5c0.2,0.2,0.4,0.4,0.6,0.7c0.1,0.2,0.2,0.5,0.3,0.8c0.1,0.3,0.1,0.7,0.1,1c0,1.2-0.4,2.2-1.3,2.9
				C465.9,207.5,464.8,207.9,463.4,207.9z"/>
			<path class="st2" d="M508.1,194.6h2.6v13.1h-2l-5.6-8v8h-2.6v-13.1h2l5.6,8V194.6z"/>
			<path class="st2" d="M528.8,205.2h5.5v2.5h-8.1v-13.1h8v2.5h-5.4v2.8h4.9v2.4h-4.9V205.2z"/>
			<path class="st2" d="M559.1,207.6h-2.9l-2.5-4.3l-2.5,4.3h-2.9l4-6.7l-3.8-6.4h2.9l2.3,3.9l2.3-3.9h2.9l-3.8,6.4L559.1,207.6z"/>
			<path class="st2" d="M582.2,194.6v2.5h-3.5v10.6h-2.6V197h-3.5v-2.5H582.2z"/>
		</g>
	</g>
</g>
</svg>
