<?xml version="1.0" encoding="utf-8"?>
<!-- Generator: Adobe Illustrator 25.4.1, SVG Export Plug-In . SVG Version: 6.00 Build 0)  -->
<svg version="1.1" id="Layer_1" xmlns="http://www.w3.org/2000/svg" xmlns:xlink="http://www.w3.org/1999/xlink" x="0px" y="0px"
	 viewBox="0 0 725.5 118.2" style="enable-background:new 0 0 725.5 118.2;" xml:space="preserve">
<style type="text/css">
	.st0{fill:#FFFFFF;}
	.st1{fill:#852BED;}
</style>
<rect x="0" y="-0.9" class="st0" width="725.5" height="120.3"/>
<g>
	<path class="st1" d="M104.7,20.3l38.2,85.8H121l-8.8-20H32.8l-8.9,20H2l11.5-25.8c3.9-8.6,12.4-14.1,21.7-14.1h68L87,29.6
		c-1-2.2-3.2-3.5-5.5-3.5H63.4c-2.3,0-4.5,1.3-5.3,3.5l-9.8,21.9H26.3l14-31.3c3.7-8.6,12.4-14.1,21.7-14.1h20.7
		C92.3,6.1,100.8,11.6,104.7,20.3z"/>
	<rect x="319.6" y="39.5" class="st1" width="22.5" height="66.6"/>
	<path class="st1" d="M415.2,6.2v20h-55.8v-0.1h-49.3c-0.8-0.2-1.7-0.2-2.6-0.2H186.3c-11.2,0-11.7,16.1,0,16.1h71.4
		c47.2,0,47.4,64,0,64h-99.2v-20h99.2c16.4,0,16-24,0-24h-71.4c-42.6,0-42.5-55.9,0-55.9h121.3c1.4,0,2.6,0,3.9,0.2H415.2z"/>
	<path class="st1" d="M553,6.1h21.9L553.6,54c-3.7,8.6-12.4,14.1-21.7,14.1H512v38h-22.3v-38h-19.7c-9.5,0-18-5.5-21.9-14.1
		L426.7,6.1h21.9l17.1,38.5c1,2.2,3.2,3.6,5.5,3.6h59.3c2.3,0,4.5-1.4,5.3-3.6L553,6.1z"/>
	<path class="st1" d="M701.6,6.1h21.9L685.2,92c-3.9,8.5-12.4,14.1-21.7,14.1h-20.9c-9.4,0-17.9-5.6-21.7-14.1L582.5,6.1h21.9
		l34.1,76.5c1,2.2,3.2,3.5,5.5,3.5h18c2.4,0,4.6-1.3,5.5-3.5L701.6,6.1z"/>
</g>
</svg>
