<svg xmlns="http://www.w3.org/2000/svg" viewBox="0 0 200 40">
  <defs>
    <linearGradient id="logoGrad" x1="0%" y1="0%" x2="100%" y2="0%">
      <stop offset="0%" style="stop-color:#7C3AED"/>
      <stop offset="100%" style="stop-color:#A855F7"/>
    </linearGradient>
  </defs>
  <!-- A with gradient accent -->
  <path d="M12 32L22 8L32 32M16 24H28" fill="none" stroke="url(#logoGrad)" stroke-width="2.5" stroke-linecap="round" stroke-linejoin="round"/>
  <!-- S -->
  <path d="M42 14C42 11 45 8 50 8C55 8 58 11 58 14C58 20 42 18 42 26C42 29 45 32 50 32C55 32 58 29 58 26" fill="none" stroke="#FFFFFF" stroke-width="2.5" stroke-linecap="round"/>
  <!-- T -->
  <line x1="68" y1="8" x2="88" y2="8" stroke="#FFFFFF" stroke-width="2.5" stroke-linecap="round"/>
  <line x1="78" y1="8" x2="78" y2="32" stroke="#FFFFFF" stroke-width="2.5" stroke-linecap="round"/>
  <!-- Y -->
  <path d="M96 8L106 20L116 8M106 20L106 32" fill="none" stroke="#FFFFFF" stroke-width="2.5" stroke-linecap="round" stroke-linejoin="round"/>
  <!-- V -->
  <path d="M124 8L134 32L144 8" fill="none" stroke="#FFFFFF" stroke-width="2.5" stroke-linecap="round" stroke-linejoin="round"/>
  <!-- Accent dot -->
  <circle cx="158" cy="28" r="4" fill="url(#logoGrad)"/>
</svg>
